<svg width="207" height="74" viewBox="0 0 207 74" fill="none" xmlns="http://www.w3.org/2000/svg">
<path d="M75.4749 37C75.4749 56.5509 58.9713 72.5 38.4874 72.5C18.0036 72.5 1.5 56.5509 1.5 37C1.5 17.4491 18.0036 1.5 38.4874 1.5C58.9713 1.5 75.4749 17.4491 75.4749 37Z" stroke="url(#paint0_linear_66_2)" stroke-width="3"/>
<path d="M109.79 50L107.99 44.024H99.6017L97.8017 50H92.2577L100.538 24.872H107.306L115.478 50H109.79ZM103.85 29.84H103.67L100.898 39.38H106.658L103.85 29.84ZM125.074 50.432C123.25 50.432 121.714 50.144 120.466 49.568C119.218 48.968 118.102 48.128 117.118 47.048L120.25 43.88C120.922 44.624 121.666 45.212 122.482 45.644C123.298 46.076 124.222 46.292 125.254 46.292C126.31 46.292 127.042 46.136 127.45 45.824C127.858 45.488 128.062 45.044 128.062 44.492C128.062 43.604 127.426 43.076 126.154 42.908L124.102 42.656C119.854 42.128 117.73 40.184 117.73 36.824C117.73 35.912 117.898 35.084 118.234 34.34C118.594 33.572 119.086 32.924 119.71 32.396C120.358 31.844 121.126 31.424 122.014 31.136C122.926 30.824 123.946 30.668 125.074 30.668C126.058 30.668 126.922 30.74 127.666 30.884C128.434 31.004 129.106 31.196 129.682 31.46C130.282 31.7 130.822 32.012 131.302 32.396C131.806 32.756 132.298 33.164 132.778 33.62L129.718 36.752C129.118 36.152 128.434 35.684 127.666 35.348C126.922 34.988 126.154 34.808 125.362 34.808C124.45 34.808 123.802 34.952 123.418 35.24C123.034 35.528 122.842 35.912 122.842 36.392C122.842 36.896 122.974 37.292 123.238 37.58C123.526 37.844 124.054 38.036 124.822 38.156L126.946 38.444C131.098 38.996 133.174 40.892 133.174 44.132C133.174 45.044 132.982 45.884 132.598 46.652C132.214 47.42 131.662 48.092 130.942 48.668C130.246 49.22 129.394 49.652 128.386 49.964C127.402 50.276 126.298 50.432 125.074 50.432ZM144.475 50.432C143.083 50.432 141.835 50.204 140.731 49.748C139.651 49.292 138.727 48.632 137.959 47.768C137.215 46.904 136.639 45.86 136.231 44.636C135.823 43.412 135.619 42.044 135.619 40.532C135.619 39.02 135.823 37.652 136.231 36.428C136.639 35.204 137.215 34.172 137.959 33.332C138.727 32.468 139.651 31.808 140.731 31.352C141.835 30.896 143.083 30.668 144.475 30.668C145.867 30.668 147.103 30.896 148.183 31.352C149.287 31.808 150.211 32.468 150.955 33.332C151.723 34.172 152.311 35.204 152.719 36.428C153.127 37.652 153.331 39.02 153.331 40.532C153.331 42.044 153.127 43.412 152.719 44.636C152.311 45.86 151.723 46.904 150.955 47.768C150.211 48.632 149.287 49.292 148.183 49.748C147.103 50.204 145.867 50.432 144.475 50.432ZM144.475 46.22C145.531 46.22 146.347 45.896 146.923 45.248C147.499 44.6 147.787 43.676 147.787 42.476V38.624C147.787 37.424 147.499 36.5 146.923 35.852C146.347 35.204 145.531 34.88 144.475 34.88C143.419 34.88 142.603 35.204 142.027 35.852C141.451 36.5 141.163 37.424 141.163 38.624V42.476C141.163 43.676 141.451 44.6 142.027 45.248C142.603 45.896 143.419 46.22 144.475 46.22ZM157.127 50V31.1H162.455V35.204H162.635C162.731 34.676 162.899 34.172 163.139 33.692C163.379 33.188 163.691 32.744 164.075 32.36C164.483 31.976 164.963 31.676 165.515 31.46C166.067 31.22 166.715 31.1 167.459 31.1H168.395V36.068H167.063C165.503 36.068 164.339 36.272 163.571 36.68C162.827 37.088 162.455 37.844 162.455 38.948V50H157.127ZM178.446 50C176.598 50 175.194 49.532 174.234 48.596C173.298 47.66 172.83 46.292 172.83 44.492V35.24H170.166V31.1H171.498C172.218 31.1 172.71 30.932 172.974 30.596C173.238 30.236 173.37 29.732 173.37 29.084V25.988H178.158V31.1H181.902V35.24H178.158V45.86H181.614V50H178.446ZM184.524 50V45.788L193.92 35.24H184.848V31.1H200.112V35.276L190.68 45.86H200.364V50H184.524Z" fill="white"/>
<path fill-rule="evenodd" clip-rule="evenodd" d="M25.5716 15H29.559V47.5833H63.4523V51.4167H25.5716V15ZM22.2487 24.5833H15.603V28.4167H22.2487V24.5833ZM32.8819 24.5833V28.4167H49.4962V44.389H53.4837V24.5833H32.8819ZM53.4837 54.611H49.4962V61H53.4837V54.611Z" fill="white"/>
<defs>
<linearGradient id="paint0_linear_66_2" x1="38.4874" y1="0" x2="38.4874" y2="74" gradientUnits="userSpaceOnUse">
<stop stop-color="white"/>
<stop offset="1" stop-color="#01408A"/>
</linearGradient>
</defs>
</svg>
