<svg width="402" height="74" viewBox="0 0 402 74" fill="none" xmlns="http://www.w3.org/2000/svg">
<circle cx="37" cy="37" r="35.5" stroke="url(#paint0_linear_38_2)" stroke-width="3"/>
<g clip-path="url(#clip0_38_2)">
<path d="M45.8463 18.5H33.5527H32.6011L31.928 19.1731L22.6206 28.48L21.9475 29.1531V30.1053V49.2928C21.9475 52.7153 24.7317 55.5001 28.1548 55.5001H45.8463C49.2682 55.5001 52.0525 52.7153 52.0525 49.2928V24.7073C52.0525 21.2843 49.2682 18.5 45.8463 18.5ZM49.7547 49.2927C49.7547 51.4518 48.0048 53.2017 45.8463 53.2017H28.1548C25.9962 53.2017 24.2463 51.4518 24.2463 49.2927V30.1052H30.2962C32.0945 30.1052 33.5527 28.647 33.5527 26.8482V20.7983H45.8463C48.0048 20.7983 49.7547 22.5482 49.7547 24.7073V49.2927Z" fill="url(#paint1_linear_38_2)"/>
<path d="M30.275 36.7086C29.8521 36.7086 29.5484 37.0129 29.5484 37.4741V42.7353C29.5484 43.1969 29.8521 43.5012 30.275 43.5012C30.6867 43.5012 30.9915 43.197 30.9915 42.7353V37.4741C30.9915 37.0129 30.6867 36.7086 30.275 36.7086Z" fill="url(#paint2_linear_38_2)"/>
<path d="M37.6953 36.7086C37.2633 36.7086 37.0272 36.9443 36.8122 37.4548L35.4176 40.6741H35.3782L33.9553 37.4548C33.7303 36.9442 33.4941 36.7086 33.0622 36.7086C32.5819 36.7086 32.267 37.0426 32.267 37.5725V42.8044C32.267 43.2458 32.5425 43.5012 32.9351 43.5012C33.3075 43.5012 33.583 43.2458 33.583 42.8044V39.5847H33.6314L34.6719 41.9794C34.8777 42.4507 35.0453 42.5884 35.3783 42.5884C35.7123 42.5884 35.8788 42.4507 36.0857 41.9794L37.1161 39.5847H37.1655V42.8044C37.1655 43.2458 37.4298 43.5012 37.8224 43.5012C38.215 43.5012 38.4804 43.2458 38.4804 42.8044V37.5725C38.4804 37.0426 38.1757 36.7086 37.6953 36.7086Z" fill="url(#paint3_linear_38_2)"/>
<path d="M44.2528 39.7321H42.8783C42.5059 39.7321 42.2698 39.9576 42.2698 40.3012C42.2698 40.6449 42.506 40.8704 42.8783 40.8704H43.3304C43.3698 40.8704 43.3889 40.8901 43.3889 40.9294C43.3889 41.1847 43.3697 41.4102 43.3102 41.5868C43.1729 42.0092 42.7511 42.2741 42.2405 42.2741C41.6613 42.2741 41.2979 41.9895 41.1516 41.5379C41.0729 41.2927 41.0436 40.9688 41.0436 40.1049C41.0436 39.2411 41.073 38.9273 41.1516 38.6815C41.2979 38.2203 41.6522 37.9358 42.2213 37.9358C42.6532 37.9358 42.9771 38.073 43.2325 38.4262C43.4282 38.7011 43.625 38.7799 43.8702 38.7799C44.2336 38.7799 44.5272 38.515 44.5272 38.132C44.5272 37.9752 44.4788 37.8373 44.4 37.7001C44.0468 37.1012 43.3011 36.6597 42.2213 36.6597C41.0335 36.6597 40.1112 37.1996 39.767 38.2793C39.6197 38.7501 39.5803 39.1235 39.5803 40.1049C39.5803 41.0863 39.6197 41.4591 39.767 41.9305C40.1111 43.0103 41.0335 43.5502 42.2213 43.5502C43.409 43.5502 44.3113 42.9512 44.6554 41.8815C44.7735 41.5087 44.8219 40.9587 44.8219 40.3698V40.3012C44.8219 39.9379 44.6161 39.7321 44.2528 39.7321Z" fill="url(#paint4_linear_38_2)"/>
</g>
<path d="M104.148 33.084C103.068 33.084 102.276 32.844 101.772 32.364C101.292 31.86 101.052 31.224 101.052 30.456V29.664C101.052 28.896 101.292 28.272 101.772 27.792C102.276 27.288 103.068 27.036 104.148 27.036C105.228 27.036 106.008 27.288 106.488 27.792C106.992 28.272 107.244 28.896 107.244 29.664V30.456C107.244 31.224 106.992 31.86 106.488 32.364C106.008 32.844 105.228 33.084 104.148 33.084ZM101.484 35.1H106.812V54H101.484V35.1ZM112.073 28.872H124.277C126.365 28.872 127.985 29.46 129.137 30.636C130.313 31.812 130.901 33.372 130.901 35.316C130.901 36.276 130.769 37.092 130.505 37.764C130.265 38.436 129.929 38.988 129.497 39.42C129.089 39.852 128.597 40.176 128.021 40.392C127.469 40.584 126.869 40.692 126.221 40.716V40.932C126.821 40.932 127.445 41.04 128.093 41.256C128.765 41.472 129.377 41.82 129.929 42.3C130.481 42.756 130.937 43.356 131.297 44.1C131.681 44.844 131.873 45.756 131.873 46.836C131.873 47.82 131.705 48.756 131.369 49.644C131.057 50.508 130.613 51.264 130.037 51.912C129.461 52.56 128.777 53.076 127.985 53.46C127.193 53.82 126.329 54 125.393 54H112.073V28.872ZM117.545 49.392H123.845C124.565 49.392 125.129 49.2 125.537 48.816C125.969 48.408 126.185 47.844 126.185 47.124V45.9C126.185 45.18 125.969 44.628 125.537 44.244C125.129 43.836 124.565 43.632 123.845 43.632H117.545V49.392ZM117.545 39.168H122.981C123.701 39.168 124.265 38.964 124.673 38.556C125.081 38.148 125.285 37.584 125.285 36.864V35.784C125.285 35.064 125.081 34.5 124.673 34.092C124.265 33.684 123.701 33.48 122.981 33.48H117.545V39.168ZM143.465 54.432C142.073 54.432 140.825 54.204 139.721 53.748C138.641 53.292 137.717 52.632 136.949 51.768C136.205 50.904 135.629 49.86 135.221 48.636C134.813 47.412 134.609 46.044 134.609 44.532C134.609 43.02 134.813 41.652 135.221 40.428C135.629 39.204 136.205 38.172 136.949 37.332C137.717 36.468 138.641 35.808 139.721 35.352C140.825 34.896 142.073 34.668 143.465 34.668C144.857 34.668 146.093 34.896 147.173 35.352C148.277 35.808 149.201 36.468 149.945 37.332C150.713 38.172 151.301 39.204 151.709 40.428C152.117 41.652 152.32 43.02 152.32 44.532C152.32 46.044 152.117 47.412 151.709 48.636C151.301 49.86 150.713 50.904 149.945 51.768C149.201 52.632 148.277 53.292 147.173 53.748C146.093 54.204 144.857 54.432 143.465 54.432ZM143.465 50.22C144.521 50.22 145.337 49.896 145.913 49.248C146.489 48.6 146.777 47.676 146.777 46.476V42.624C146.777 41.424 146.489 40.5 145.913 39.852C145.337 39.204 144.521 38.88 143.465 38.88C142.409 38.88 141.593 39.204 141.017 39.852C140.441 40.5 140.153 41.424 140.153 42.624V46.476C140.153 47.676 140.441 48.6 141.017 49.248C141.593 49.896 142.409 50.22 143.465 50.22ZM162.53 54C160.682 54 159.278 53.532 158.318 52.596C157.382 51.66 156.914 50.292 156.914 48.492V39.24H154.25V35.1H155.582C156.302 35.1 156.794 34.932 157.058 34.596C157.322 34.236 157.454 33.732 157.454 33.084V29.988H162.242V35.1H165.986V39.24H162.242V49.86H165.698V54H162.53ZM177.619 45.612V40.428H188.311V45.612H177.619ZM216.99 54L215.19 48.024H206.802L205.002 54H199.458L207.738 28.872H214.506L222.678 54H216.99ZM211.05 33.84H210.87L208.098 43.38H213.858L211.05 33.84ZM228.531 33.084C227.451 33.084 226.659 32.844 226.155 32.364C225.675 31.86 225.435 31.224 225.435 30.456V29.664C225.435 28.896 225.675 28.272 226.155 27.792C226.659 27.288 227.451 27.036 228.531 27.036C229.611 27.036 230.391 27.288 230.871 27.792C231.375 28.272 231.627 28.896 231.627 29.664V30.456C231.627 31.224 231.375 31.86 230.871 32.364C230.391 32.844 229.611 33.084 228.531 33.084ZM225.867 35.1H231.195V54H225.867V35.1ZM253.099 54.432C250.891 54.432 249.019 54.06 247.483 53.316C245.947 52.548 244.639 51.564 243.559 50.364L247.159 46.728C248.863 48.648 250.963 49.608 253.459 49.608C254.803 49.608 255.799 49.332 256.447 48.78C257.095 48.228 257.419 47.496 257.419 46.584C257.419 45.888 257.227 45.312 256.843 44.856C256.459 44.376 255.679 44.052 254.503 43.884L252.019 43.56C249.355 43.224 247.399 42.42 246.151 41.148C244.927 39.876 244.315 38.184 244.315 36.072C244.315 34.944 244.531 33.912 244.963 32.976C245.395 32.04 246.007 31.236 246.799 30.564C247.615 29.892 248.599 29.376 249.751 29.016C250.927 28.632 252.259 28.44 253.747 28.44C255.643 28.44 257.311 28.74 258.751 29.34C260.191 29.94 261.427 30.816 262.459 31.968L258.823 35.64C258.223 34.944 257.491 34.38 256.627 33.948C255.787 33.492 254.719 33.264 253.423 33.264C252.199 33.264 251.287 33.48 250.687 33.912C250.087 34.344 249.787 34.944 249.787 35.712C249.787 36.576 250.015 37.2 250.471 37.584C250.951 37.968 251.719 38.244 252.775 38.412L255.259 38.808C257.851 39.216 259.771 40.02 261.019 41.22C262.267 42.396 262.891 44.076 262.891 46.26C262.891 47.46 262.675 48.564 262.243 49.572C261.811 50.58 261.175 51.444 260.335 52.164C259.519 52.884 258.499 53.448 257.275 53.856C256.051 54.24 254.659 54.432 253.099 54.432ZM274.808 54.432C273.416 54.432 272.168 54.204 271.064 53.748C269.984 53.292 269.06 52.632 268.292 51.768C267.548 50.904 266.972 49.86 266.564 48.636C266.156 47.412 265.952 46.044 265.952 44.532C265.952 43.02 266.156 41.652 266.564 40.428C266.972 39.204 267.548 38.172 268.292 37.332C269.06 36.468 269.984 35.808 271.064 35.352C272.168 34.896 273.416 34.668 274.808 34.668C276.2 34.668 277.436 34.896 278.516 35.352C279.62 35.808 280.544 36.468 281.288 37.332C282.056 38.172 282.644 39.204 283.052 40.428C283.46 41.652 283.664 43.02 283.664 44.532C283.664 46.044 283.46 47.412 283.052 48.636C282.644 49.86 282.056 50.904 281.288 51.768C280.544 52.632 279.62 53.292 278.516 53.748C277.436 54.204 276.2 54.432 274.808 54.432ZM274.808 50.22C275.864 50.22 276.68 49.896 277.256 49.248C277.832 48.6 278.12 47.676 278.12 46.476V42.624C278.12 41.424 277.832 40.5 277.256 39.852C276.68 39.204 275.864 38.88 274.808 38.88C273.752 38.88 272.936 39.204 272.36 39.852C271.784 40.5 271.496 41.424 271.496 42.624V46.476C271.496 47.676 271.784 48.6 272.36 49.248C272.936 49.896 273.752 50.22 274.808 50.22ZM292.753 54C290.929 54 289.585 53.556 288.721 52.668C287.881 51.78 287.461 50.496 287.461 48.816V27.36H292.789V49.86H295.165V54H292.753ZM309.519 50.832H309.339C309.171 51.312 308.943 51.768 308.655 52.2C308.391 52.632 308.043 53.016 307.611 53.352C307.179 53.688 306.663 53.952 306.063 54.144C305.487 54.336 304.815 54.432 304.047 54.432C302.103 54.432 300.627 53.796 299.619 52.524C298.635 51.228 298.143 49.38 298.143 46.98V35.1H303.471V46.512C303.471 47.664 303.675 48.552 304.083 49.176C304.491 49.8 305.187 50.112 306.171 50.112C306.579 50.112 306.987 50.052 307.395 49.932C307.803 49.812 308.163 49.644 308.475 49.428C308.787 49.188 309.039 48.9 309.231 48.564C309.423 48.228 309.519 47.832 309.519 47.376V35.1H314.847V54H309.519V50.832ZM326.428 54C324.58 54 323.176 53.532 322.216 52.596C321.28 51.66 320.812 50.292 320.812 48.492V39.24H318.148V35.1H319.48C320.2 35.1 320.692 34.932 320.956 34.596C321.22 34.236 321.352 33.732 321.352 33.084V29.988H326.14V35.1H329.884V39.24H326.14V49.86H329.596V54H326.428ZM336.25 33.084C335.17 33.084 334.378 32.844 333.874 32.364C333.394 31.86 333.154 31.224 333.154 30.456V29.664C333.154 28.896 333.394 28.272 333.874 27.792C334.378 27.288 335.17 27.036 336.25 27.036C337.33 27.036 338.11 27.288 338.59 27.792C339.094 28.272 339.346 28.896 339.346 29.664V30.456C339.346 31.224 339.094 31.86 338.59 32.364C338.11 32.844 337.33 33.084 336.25 33.084ZM333.586 35.1H338.914V54H333.586V35.1ZM351.554 54.432C350.162 54.432 348.914 54.204 347.81 53.748C346.73 53.292 345.806 52.632 345.038 51.768C344.294 50.904 343.718 49.86 343.31 48.636C342.902 47.412 342.698 46.044 342.698 44.532C342.698 43.02 342.902 41.652 343.31 40.428C343.718 39.204 344.294 38.172 345.038 37.332C345.806 36.468 346.73 35.808 347.81 35.352C348.914 34.896 350.162 34.668 351.554 34.668C352.946 34.668 354.182 34.896 355.262 35.352C356.366 35.808 357.29 36.468 358.034 37.332C358.802 38.172 359.39 39.204 359.798 40.428C360.206 41.652 360.41 43.02 360.41 44.532C360.41 46.044 360.206 47.412 359.798 48.636C359.39 49.86 358.802 50.904 358.034 51.768C357.29 52.632 356.366 53.292 355.262 53.748C354.182 54.204 352.946 54.432 351.554 54.432ZM351.554 50.22C352.61 50.22 353.426 49.896 354.002 49.248C354.578 48.6 354.866 47.676 354.866 46.476V42.624C354.866 41.424 354.578 40.5 354.002 39.852C353.426 39.204 352.61 38.88 351.554 38.88C350.498 38.88 349.682 39.204 349.106 39.852C348.53 40.5 348.242 41.424 348.242 42.624V46.476C348.242 47.676 348.53 48.6 349.106 49.248C349.682 49.896 350.498 50.22 351.554 50.22ZM364.207 54V35.1H369.535V38.304H369.751C370.087 37.32 370.675 36.468 371.515 35.748C372.355 35.028 373.519 34.668 375.007 34.668C376.951 34.668 378.415 35.316 379.399 36.612C380.407 37.908 380.911 39.756 380.911 42.156V54H375.583V42.588C375.583 41.364 375.391 40.464 375.007 39.888C374.623 39.288 373.939 38.988 372.955 38.988C372.523 38.988 372.103 39.048 371.695 39.168C371.287 39.264 370.915 39.432 370.579 39.672C370.267 39.912 370.015 40.212 369.823 40.572C369.631 40.908 369.535 41.304 369.535 41.76V54H364.207ZM392.06 54.432C390.236 54.432 388.7 54.144 387.452 53.568C386.204 52.968 385.088 52.128 384.104 51.048L387.236 47.88C387.908 48.624 388.652 49.212 389.468 49.644C390.284 50.076 391.208 50.292 392.24 50.292C393.296 50.292 394.028 50.136 394.436 49.824C394.844 49.488 395.048 49.044 395.048 48.492C395.048 47.604 394.412 47.076 393.14 46.908L391.088 46.656C386.84 46.128 384.716 44.184 384.716 40.824C384.716 39.912 384.884 39.084 385.22 38.34C385.58 37.572 386.072 36.924 386.696 36.396C387.344 35.844 388.112 35.424 389 35.136C389.912 34.824 390.932 34.668 392.06 34.668C393.044 34.668 393.908 34.74 394.652 34.884C395.42 35.004 396.092 35.196 396.668 35.46C397.268 35.7 397.808 36.012 398.288 36.396C398.792 36.756 399.284 37.164 399.764 37.62L396.704 40.752C396.104 40.152 395.42 39.684 394.652 39.348C393.908 38.988 393.14 38.808 392.348 38.808C391.436 38.808 390.788 38.952 390.404 39.24C390.02 39.528 389.828 39.912 389.828 40.392C389.828 40.896 389.96 41.292 390.224 41.58C390.512 41.844 391.04 42.036 391.808 42.156L393.932 42.444C398.084 42.996 400.16 44.892 400.16 48.132C400.16 49.044 399.968 49.884 399.584 50.652C399.2 51.42 398.648 52.092 397.928 52.668C397.232 53.22 396.38 53.652 395.372 53.964C394.388 54.276 393.284 54.432 392.06 54.432Z" fill="white"/>
<defs>
<linearGradient id="paint0_linear_38_2" x1="37" y1="0" x2="37" y2="74" gradientUnits="userSpaceOnUse">
<stop stop-color="#455A64"/>
<stop offset="1" stop-color="#BA68C8"/>
</linearGradient>
<linearGradient id="paint1_linear_38_2" x1="37" y1="18.5" x2="37" y2="55.5001" gradientUnits="userSpaceOnUse">
<stop stop-color="#455A64"/>
<stop offset="1" stop-color="#B567C3"/>
</linearGradient>
<linearGradient id="paint2_linear_38_2" x1="30.2699" y1="36.7086" x2="30.2699" y2="43.5012" gradientUnits="userSpaceOnUse">
<stop stop-color="#455A64"/>
<stop offset="1" stop-color="#B567C3"/>
</linearGradient>
<linearGradient id="paint3_linear_38_2" x1="35.3737" y1="36.7086" x2="35.3737" y2="43.5012" gradientUnits="userSpaceOnUse">
<stop stop-color="#455A64"/>
<stop offset="1" stop-color="#B567C3"/>
</linearGradient>
<linearGradient id="paint4_linear_38_2" x1="42.2011" y1="36.6597" x2="42.2011" y2="43.5502" gradientUnits="userSpaceOnUse">
<stop stop-color="#455A64"/>
<stop offset="1" stop-color="#B567C3"/>
</linearGradient>
<clipPath id="clip0_38_2">
<rect width="37" height="37" fill="white" transform="translate(18.5 18.5)"/>
</clipPath>
</defs>
</svg>
